<svg width="704" height="103" viewBox="0 0 704 103" fill="none" xmlns="http://www.w3.org/2000/svg">
<g filter="url(#filter0_bi)">
<path d="M241.316 103H220.724L51.5 103C23.0574 103 0 79.9427 0 51.5C0 23.0573 23.0574 0 51.5 0L652.5 0C680.943 0 704 23.0573 704 51.5C704 79.9427 680.943 103 652.5 103L263.839 103L241.316 103Z" fill="white" fill-opacity="0.03"/>
<path d="M241.316 102.5H220.724L51.5 102.5C23.3335 102.5 0.5 79.6665 0.5 51.5C0.5 23.3335 23.3335 0.5 51.5 0.5L652.5 0.5C680.667 0.5 703.5 23.3335 703.5 51.5C703.5 79.6665 680.667 102.5 652.5 102.5L263.839 102.5L241.316 102.5Z" stroke="url(#paint0_linear)"/>
<path d="M241.316 102.5H220.724L51.5 102.5C23.3335 102.5 0.5 79.6665 0.5 51.5C0.5 23.3335 23.3335 0.5 51.5 0.5L652.5 0.5C680.667 0.5 703.5 23.3335 703.5 51.5C703.5 79.6665 680.667 102.5 652.5 102.5L263.839 102.5L241.316 102.5Z" stroke="url(#paint1_linear)"/>
</g>
<defs>
<filter id="filter0_bi" x="-15" y="-15" width="734" height="133" filterUnits="userSpaceOnUse" color-interpolation-filters="sRGB">
<feFlood flood-opacity="0" result="BackgroundImageFix"/>
<feGaussianBlur in="BackgroundImage" stdDeviation="7.5"/>
<feComposite in2="SourceAlpha" operator="in" result="effect1_backgroundBlur"/>
<feBlend mode="normal" in="SourceGraphic" in2="effect1_backgroundBlur" result="shape"/>
<feColorMatrix in="SourceAlpha" type="matrix" values="0 0 0 0 0 0 0 0 0 0 0 0 0 0 0 0 0 0 127 0" result="hardAlpha"/>
<feOffset dy="0.798571"/>
<feGaussianBlur stdDeviation="5"/>
<feComposite in2="hardAlpha" operator="arithmetic" k2="-1" k3="1"/>
<feColorMatrix type="matrix" values="0 0 0 0 0.888917 0 0 0 0 0.870833 0 0 0 0 1 0 0 0 0.2 0"/>
<feBlend mode="normal" in2="shape" result="effect2_innerShadow"/>
</filter>
<linearGradient id="paint0_linear" x1="17.3746" y1="83.9999" x2="227.424" y2="135.801" gradientUnits="userSpaceOnUse">
<stop stop-color="white" stop-opacity="0"/>
<stop offset="0.515625" stop-color="white"/>
<stop offset="1" stop-color="white" stop-opacity="0"/>
</linearGradient>
<linearGradient id="paint1_linear" x1="758.055" y1="89.5" x2="722.523" y2="-0.326944" gradientUnits="userSpaceOnUse">
<stop stop-color="white"/>
<stop offset="1" stop-color="white" stop-opacity="0"/>
</linearGradient>
</defs>
</svg>
