<svg width="122" height="18" viewBox="0 0 122 18" fill="none" xmlns="http://www.w3.org/2000/svg">
<mask id="mask0" mask-type="alpha" maskUnits="userSpaceOnUse" x="0" y="0" width="122" height="18">
<path d="M23.7802 1H19.2202L17.7202 2.5049L17.7002 17.554H29.8602L31.3802 16.0491V13.0392H23.7802V1Z" stroke="black" stroke-width="0.50632" stroke-miterlimit="10"/>
<path d="M40.4999 1H35.9399L34.4199 2.5049V17.554H46.5599L48.0799 16.0491V13.0392H40.4999V1Z" stroke="black" stroke-width="0.50632" stroke-miterlimit="10"/>
<path d="M57.2001 16.0491L55.6801 17.554H51.1201L51.1401 2.5049L52.6401 1H57.2001V16.0491Z" stroke="black" stroke-width="0.50632" stroke-miterlimit="10"/>
<path d="M73.9202 11.5343H66.3202V16.0491L64.8002 17.554H60.2402V2.5049L61.7602 1H75.4402V10.0294L73.9202 11.5343Z" stroke="black" stroke-width="0.50632" stroke-miterlimit="10"/>
<path d="M78.46 5.51471V2.5049L79.98 1H95.1799V4.00981L93.6599 5.51471H89.0999V16.0491L87.5799 17.554H83.02V5.51471H78.46Z" stroke="black" stroke-width="0.50632" stroke-miterlimit="10"/>
<path d="M113.4 5.51471H119.48L121 4.00981V1H108.84L107.34 2.5049V17.554H119.48L121 16.0491V13.0392H113.4V11.5343V7.01962V5.51471Z" stroke="black" stroke-width="0.50632" stroke-miterlimit="10"/>
<path d="M7.08 5.51471V7.01962H13.16V10.0294L11.64 11.5343H7.08V13.0392H14.68V16.0491L13.16 17.554H1V2.5049L2.52 1H14.68V4.00981L13.16 5.51471H7.08Z" stroke="black" stroke-width="0.50632" stroke-miterlimit="10"/>
<path d="M1 2.50488H13.16V5.71271H5.55999V8.52452H11.64V11.7521H5.55999V14.5441H13.16V17.554H1V2.50488Z" fill="black"/>
<path d="M104.3 16.0491L102.78 17.554H98.2197V2.5049L99.7397 1H104.28L104.3 16.0491Z" stroke="black" stroke-width="0.50632" stroke-miterlimit="10"/>
<path d="M66.3203 5.51489V7.01978H70.8802" stroke="black" stroke-width="0.50632" stroke-miterlimit="10"/>
<path d="M17.7002 2.50488H22.2602V14.5441H29.8602V17.554H17.7002V2.50488Z" fill="black"/>
<path d="M34.4199 2.50488H38.9799V14.5441H46.5799V17.554H34.4199V2.50488Z" fill="black"/>
<path d="M51.1201 2.50488H55.6801V14.5441V17.554H51.1201V2.50488Z" fill="black"/>
<path d="M98.2197 2.50488H102.78V14.5441V17.554H98.2197V2.50488Z" fill="black"/>
<path d="M73.9202 2.50488H60.2402V17.5344H64.8002V11.7127H73.9202V2.50488ZM70.8802 8.52462H64.8002V5.51475H70.8802V8.52462Z" fill="black"/>
<path d="M81.5 2.50488H78.46V5.5147H83.02V17.554H87.58V5.77212H93.66V2.50488H81.5Z" fill="black"/>
<path d="M119.48 2.50488H107.34V17.554H119.48V14.5441H111.88V5.73252H119.48V2.50488Z" fill="black"/>
</mask>
<g mask="url(#mask0)">
<rect x="-642" y="-172.242" width="1497" height="483" fill="#C4C4C4"/>
</g>
</svg>
