<svg width="183" height="64" viewBox="0 0 183 64" fill="none" xmlns="http://www.w3.org/2000/svg">
<g opacity="0.9">
<path d="M0.5 57.5V20.5L20 1H63.5M182 24V44L162.5 63.5H101.5" stroke="white" stroke-width="0.5"/>
<rect y="30" width="1" height="18" fill="white"/>
<rect x="14" y="23" width="1" height="25" fill="white"/>
<rect x="20.1155" y="0.0266113" width="1" height="18.5482" transform="rotate(45 20.1155 0.0266113)" fill="white"/>
<rect x="38.5481" width="1" height="18.5482" transform="rotate(90 38.5481 0)" fill="white"/>
<rect x="163" y="63" width="1" height="31" transform="rotate(90 163 63)" fill="white"/>
<rect x="167.034" y="58" width="1" height="7.11879" transform="rotate(45 167.034 58)" fill="white"/>
<rect x="168.084" y="35" width="1" height="14.2616" transform="rotate(45 168.084 35)" fill="white"/>
<path d="M6 23.5V58H159.5L176 41.5V7H22.5L6 23.5Z" stroke="white" stroke-width="0.5"/>
<path opacity="0.8" d="M28.209 36.8369H27.6719C27.6719 36.9508 27.6589 37.0501 27.6328 37.1348C27.6068 37.2161 27.5677 37.2845 27.5156 37.3398C27.4635 37.3984 27.3936 37.4424 27.3057 37.4717C27.2178 37.4977 27.1136 37.5107 26.9932 37.5107C26.8695 37.5107 26.7604 37.4863 26.666 37.4375C26.5749 37.3887 26.4984 37.3219 26.4365 37.2373C26.3747 37.1527 26.3291 37.0534 26.2998 36.9395C26.2705 36.8255 26.2559 36.7018 26.2559 36.5684V36.1387C26.2559 36.0085 26.2705 35.8864 26.2998 35.7725C26.3291 35.6553 26.3747 35.5544 26.4365 35.4697C26.4984 35.3883 26.5749 35.3232 26.666 35.2744C26.7604 35.2256 26.8695 35.2012 26.9932 35.2012C27.1136 35.2012 27.2178 35.2158 27.3057 35.2451C27.3936 35.2712 27.4652 35.3135 27.5205 35.3721C27.5726 35.4274 27.6117 35.4974 27.6377 35.582C27.6637 35.6634 27.6768 35.7594 27.6768 35.8701H28.2139C28.2139 35.6943 28.1895 35.5381 28.1406 35.4014C28.0918 35.2646 28.0218 35.1475 27.9307 35.0498C27.8265 34.9424 27.6947 34.861 27.5352 34.8057C27.3789 34.7503 27.1982 34.7227 26.9932 34.7227C26.7913 34.7227 26.6123 34.7585 26.4561 34.8301C26.2998 34.9017 26.168 35.001 26.0605 35.1279C25.9531 35.2549 25.8701 35.4062 25.8115 35.582C25.7529 35.7546 25.7236 35.9417 25.7236 36.1436V36.5684C25.7236 36.7734 25.7529 36.9622 25.8115 37.1348C25.8701 37.3073 25.9531 37.4554 26.0605 37.5791C26.168 37.7061 26.2998 37.8053 26.4561 37.877C26.6123 37.9486 26.7913 37.9844 26.9932 37.9844C27.195 37.9844 27.374 37.9583 27.5303 37.9062C27.6865 37.8509 27.8167 37.7712 27.9209 37.667C28.0153 37.5726 28.0869 37.4554 28.1357 37.3154C28.1846 37.1755 28.209 37.016 28.209 36.8369ZM24.8643 36.3535C24.8643 36.0378 24.9196 35.7415 25.0303 35.4648C25.141 35.1849 25.2939 34.9408 25.4893 34.7324C25.6846 34.5241 25.9141 34.3613 26.1777 34.2441C26.4447 34.1237 26.7327 34.0635 27.042 34.0635C27.348 34.0635 27.6328 34.1237 27.8965 34.2441C28.1634 34.3613 28.3945 34.5241 28.5898 34.7324C28.7852 34.9408 28.9382 35.1849 29.0488 35.4648C29.1595 35.7415 29.2148 36.0378 29.2148 36.3535C29.2148 36.6725 29.1595 36.972 29.0488 37.252C28.9382 37.5319 28.7852 37.776 28.5898 37.9844C28.3945 38.196 28.1634 38.3636 27.8965 38.4873C27.6328 38.6077 27.348 38.668 27.042 38.668C26.7327 38.668 26.4447 38.6077 26.1777 38.4873C25.9141 38.3669 25.6846 38.2008 25.4893 37.9893C25.2939 37.7809 25.141 37.5368 25.0303 37.2568C24.9196 36.9736 24.8643 36.6725 24.8643 36.3535ZM24.4395 36.3535C24.4395 36.7344 24.5062 37.0924 24.6396 37.4277C24.7731 37.7598 24.957 38.0495 25.1914 38.2969C25.4225 38.5475 25.696 38.7445 26.0117 38.8877C26.3307 39.0309 26.6742 39.1025 27.042 39.1025C27.4098 39.1025 27.7516 39.0309 28.0674 38.8877C28.3831 38.7445 28.6582 38.5475 28.8926 38.2969C29.1237 38.0495 29.306 37.7598 29.4395 37.4277C29.5729 37.0924 29.6396 36.7344 29.6396 36.3535C29.6396 35.9727 29.5729 35.6162 29.4395 35.2842C29.306 34.9521 29.1237 34.6624 28.8926 34.415C28.6582 34.1709 28.3831 33.9772 28.0674 33.834C27.7516 33.6908 27.4098 33.6191 27.042 33.6191C26.6937 33.6191 26.3617 33.6875 26.0459 33.8242C25.7301 33.9577 25.4551 34.1449 25.2207 34.3857C24.9831 34.6266 24.7943 34.9163 24.6543 35.2549C24.5143 35.5902 24.4427 35.9564 24.4395 36.3535ZM36.6158 39V38.2627H33.0465L34.9557 36.1924C35.1347 35.9971 35.304 35.8018 35.4635 35.6064C35.6262 35.4079 35.7695 35.2077 35.8932 35.0059C36.0136 34.804 36.1096 34.6006 36.1813 34.3955C36.2529 34.1872 36.2887 33.9772 36.2887 33.7656C36.2887 33.4824 36.2382 33.2204 36.1373 32.9795C36.0396 32.7386 35.898 32.5303 35.7125 32.3545C35.527 32.1787 35.2991 32.042 35.0289 31.9443C34.762 31.8434 34.4609 31.793 34.1256 31.793C33.761 31.793 33.4355 31.8516 33.149 31.9688C32.8658 32.0859 32.6266 32.2438 32.4313 32.4424C32.2327 32.641 32.0813 32.8737 31.9771 33.1406C31.873 33.4043 31.8209 33.6859 31.8209 33.9854H32.7291C32.7291 33.764 32.7568 33.5638 32.8121 33.3848C32.8707 33.2057 32.9586 33.0527 33.0758 32.9258C33.1897 32.8021 33.3329 32.7061 33.5055 32.6377C33.6813 32.5693 33.888 32.5352 34.1256 32.5352C34.3209 32.5352 34.4951 32.5693 34.648 32.6377C34.8043 32.7028 34.9378 32.7923 35.0484 32.9062C35.1559 33.0202 35.2372 33.1553 35.2926 33.3115C35.3512 33.4645 35.3805 33.6289 35.3805 33.8047C35.3805 33.9479 35.3626 34.0879 35.3268 34.2246C35.291 34.3581 35.2307 34.4997 35.1461 34.6494C35.0615 34.8024 34.9492 34.9684 34.8092 35.1475C34.6692 35.3265 34.4951 35.5316 34.2867 35.7627L31.9576 38.3506V39H36.6158ZM44.1242 36.2803V34.6152C44.1242 34.1628 44.0721 33.7624 43.968 33.4141C43.8638 33.0625 43.7141 32.7663 43.5188 32.5254C43.3202 32.2845 43.0777 32.1022 42.7912 31.9785C42.508 31.8516 42.1841 31.7881 41.8195 31.7881C41.4582 31.7881 41.1343 31.8516 40.8479 31.9785C40.5646 32.1022 40.3254 32.2845 40.1301 32.5254C39.9315 32.7663 39.7801 33.0625 39.676 33.4141C39.5718 33.7624 39.5197 34.1628 39.5197 34.6152V36.2803C39.5197 36.7327 39.5718 37.1348 39.676 37.4863C39.7801 37.8346 39.9315 38.1276 40.1301 38.3652C40.3286 38.6094 40.5712 38.7933 40.8576 38.917C41.1441 39.0374 41.468 39.0977 41.8293 39.0977C42.1939 39.0977 42.5178 39.0358 42.801 38.9121C43.0842 38.7884 43.3234 38.6061 43.5188 38.3652C43.7141 38.1276 43.8638 37.8346 43.968 37.4863C44.0721 37.1348 44.1242 36.7327 44.1242 36.2803ZM40.4279 36.0996C40.4279 36.015 40.4279 35.932 40.4279 35.8506C40.4279 35.7692 40.4279 35.6878 40.4279 35.6064V34.415C40.4279 34.083 40.4605 33.7917 40.5256 33.541C40.5939 33.2871 40.6965 33.0804 40.8332 32.9209C40.9471 32.7939 41.0855 32.6979 41.2482 32.6328C41.4143 32.5645 41.6047 32.5303 41.8195 32.5303C42.0311 32.5303 42.2167 32.5612 42.3762 32.623C42.5389 32.6849 42.6757 32.7777 42.7863 32.9014C42.9003 33.0218 42.9898 33.1732 43.0549 33.3555C43.1232 33.5345 43.1704 33.7412 43.1965 33.9756L40.4279 36.0996ZM43.216 36.4707C43.216 36.819 43.1802 37.1217 43.1086 37.3789C43.0402 37.6361 42.9312 37.8444 42.7814 38.0039C42.6708 38.1211 42.5357 38.2106 42.3762 38.2725C42.2167 38.3343 42.0344 38.3652 41.8293 38.3652C41.634 38.3652 41.4582 38.3376 41.302 38.2822C41.1457 38.2236 41.0122 38.139 40.9016 38.0283C40.7811 37.9111 40.6835 37.763 40.6086 37.584C40.5337 37.4017 40.4816 37.1917 40.4523 36.9541L43.216 34.8398C43.216 34.931 43.216 35.0465 43.216 35.1865C43.216 35.3232 43.216 35.416 43.216 35.4648V36.4707ZM51.4275 39V38.2627H47.8582L49.7674 36.1924C49.9464 35.9971 50.1157 35.8018 50.2752 35.6064C50.438 35.4079 50.5812 35.2077 50.7049 35.0059C50.8253 34.804 50.9214 34.6006 50.993 34.3955C51.0646 34.1872 51.1004 33.9772 51.1004 33.7656C51.1004 33.4824 51.0499 33.2204 50.949 32.9795C50.8514 32.7386 50.7098 32.5303 50.5242 32.3545C50.3387 32.1787 50.1108 32.042 49.8406 31.9443C49.5737 31.8434 49.2726 31.793 48.9373 31.793C48.5727 31.793 48.2472 31.8516 47.9607 31.9688C47.6775 32.0859 47.4383 32.2438 47.243 32.4424C47.0444 32.641 46.893 32.8737 46.7889 33.1406C46.6847 33.4043 46.6326 33.6859 46.6326 33.9854H47.5408C47.5408 33.764 47.5685 33.5638 47.6238 33.3848C47.6824 33.2057 47.7703 33.0527 47.8875 32.9258C48.0014 32.8021 48.1447 32.7061 48.3172 32.6377C48.493 32.5693 48.6997 32.5352 48.9373 32.5352C49.1326 32.5352 49.3068 32.5693 49.4598 32.6377C49.616 32.7028 49.7495 32.7923 49.8602 32.9062C49.9676 33.0202 50.049 33.1553 50.1043 33.3115C50.1629 33.4645 50.1922 33.6289 50.1922 33.8047C50.1922 33.9479 50.1743 34.0879 50.1385 34.2246C50.1027 34.3581 50.0424 34.4997 49.9578 34.6494C49.8732 34.8024 49.7609 34.9684 49.6209 35.1475C49.4809 35.3265 49.3068 35.5316 49.0984 35.7627L46.7693 38.3506V39H51.4275ZM57.4027 39V31.8906H57.3295L54.6391 32.9258V33.751L56.4994 33.043V39H57.4027ZM69.275 39H71.5504C71.8531 38.9967 72.1461 38.9495 72.4293 38.8584C72.7158 38.7673 72.968 38.6354 73.1861 38.4629C73.4042 38.2936 73.5784 38.082 73.7086 37.8281C73.8388 37.5742 73.9023 37.2812 73.899 36.9492C73.899 36.7376 73.8665 36.5407 73.8014 36.3584C73.7395 36.1761 73.6516 36.0117 73.5377 35.8652C73.4303 35.7318 73.2936 35.6097 73.1275 35.499C72.9615 35.3883 72.789 35.3118 72.61 35.2695V35.2549C72.7825 35.18 72.929 35.1003 73.0494 35.0156C73.1731 34.931 73.2854 34.8268 73.3863 34.7031C73.484 34.5827 73.5605 34.446 73.6158 34.293C73.6744 34.14 73.7053 33.9707 73.7086 33.7852C73.7119 33.4531 73.6484 33.1683 73.5182 32.9307C73.388 32.693 73.2138 32.4977 72.9957 32.3447C72.7776 32.1917 72.5286 32.0794 72.2486 32.0078C71.9687 31.9329 71.6822 31.8939 71.3893 31.8906H69.275V39ZM70.1832 35.6748H71.6236C71.8157 35.6813 71.9947 35.7139 72.1607 35.7725C72.3268 35.8311 72.4716 35.9141 72.5953 36.0215C72.719 36.1322 72.815 36.2656 72.8834 36.4219C72.955 36.5781 72.9892 36.7572 72.9859 36.959C72.9859 37.1576 72.9469 37.335 72.8688 37.4912C72.7939 37.6475 72.6913 37.7793 72.5611 37.8867C72.4309 37.9941 72.2812 38.0788 72.1119 38.1406C71.9426 38.1992 71.7636 38.2301 71.5748 38.2334H70.1832V35.6748ZM70.1832 34.9229V32.6621H71.4186C71.5943 32.6654 71.7652 32.6882 71.9313 32.7305C72.1005 32.7728 72.2503 32.8379 72.3805 32.9258C72.5074 33.0169 72.6083 33.1325 72.6832 33.2725C72.7613 33.4124 72.8004 33.5817 72.8004 33.7803C72.8004 33.9658 72.7613 34.1286 72.6832 34.2686C72.6051 34.4085 72.5025 34.5257 72.3756 34.6201C72.2486 34.7178 72.1038 34.7926 71.941 34.8447C71.7783 34.8936 71.6122 34.9196 71.443 34.9229H70.1832ZM77.677 36.1484H79.0783C79.3973 36.1452 79.6984 36.0964 79.9816 36.002C80.2681 35.9076 80.5187 35.7708 80.7336 35.5918C80.9484 35.4128 81.1177 35.193 81.2414 34.9326C81.3684 34.6689 81.4318 34.3662 81.4318 34.0244C81.4318 33.6826 81.3684 33.3799 81.2414 33.1162C81.1177 32.8525 80.9484 32.6312 80.7336 32.4521C80.5187 32.2731 80.2681 32.1364 79.9816 32.042C79.6984 31.9476 79.3973 31.8971 79.0783 31.8906H76.7736V39H77.677V36.1484ZM77.677 35.4062V32.6328H79.0783C79.2867 32.6361 79.4787 32.6702 79.6545 32.7354C79.8335 32.8005 79.9882 32.8932 80.1184 33.0137C80.2453 33.1341 80.3446 33.2806 80.4162 33.4531C80.4911 33.6257 80.5285 33.8193 80.5285 34.0342C80.5285 34.249 80.4911 34.4411 80.4162 34.6104C80.3446 34.7764 80.2437 34.918 80.1135 35.0352C79.9833 35.1523 79.8303 35.2435 79.6545 35.3086C79.4787 35.3704 79.2867 35.403 79.0783 35.4062H77.677ZM86.45 36.0996L87.8465 39H88.7986L88.8035 38.9414L87.2947 35.9043C87.49 35.8197 87.6691 35.7171 87.8318 35.5967C87.9946 35.4762 88.1346 35.3379 88.2518 35.1816C88.3689 35.0254 88.4601 34.8512 88.5252 34.6592C88.5936 34.4671 88.6277 34.2555 88.6277 34.0244C88.6277 33.6663 88.5643 33.3555 88.4373 33.0918C88.3136 32.8249 88.1427 32.6035 87.9246 32.4277C87.7033 32.252 87.4461 32.1201 87.1531 32.0322C86.8602 31.9443 86.5477 31.8971 86.2156 31.8906H84.1307V39H85.0291V36.0996H86.45ZM85.0291 35.3574V32.6328H86.2156C86.4337 32.6361 86.6339 32.667 86.8162 32.7256C87.0018 32.7842 87.1613 32.8704 87.2947 32.9844C87.4282 33.1016 87.5324 33.2464 87.6072 33.4189C87.6821 33.5882 87.7195 33.7868 87.7195 34.0146C87.7195 34.2295 87.6805 34.4199 87.6023 34.5859C87.5242 34.7487 87.4184 34.887 87.285 35.001C87.1482 35.1149 86.9904 35.2028 86.8113 35.2646C86.6323 35.3232 86.4419 35.3542 86.24 35.3574H85.0291ZM96.1264 35.8555V35.0449C96.1231 34.791 96.1003 34.5339 96.058 34.2734C96.0189 34.013 95.9571 33.7624 95.8725 33.5215C95.7846 33.2806 95.6739 33.056 95.5404 32.8477C95.4102 32.6361 95.254 32.4521 95.0717 32.2959C94.8894 32.1396 94.6794 32.0176 94.4418 31.9297C94.2042 31.8385 93.9389 31.793 93.6459 31.793C93.3529 31.793 93.0876 31.8385 92.85 31.9297C92.6156 32.0176 92.4073 32.1396 92.225 32.2959C92.0427 32.4554 91.8848 32.641 91.7514 32.8525C91.6212 33.0609 91.5137 33.2855 91.4291 33.5264C91.3412 33.7673 91.2761 34.0179 91.2338 34.2783C91.1947 34.5355 91.1736 34.791 91.1703 35.0449V35.8555C91.1736 36.1094 91.1964 36.3649 91.2387 36.6221C91.281 36.8792 91.3461 37.1283 91.434 37.3691C91.5186 37.61 91.6277 37.8363 91.7611 38.0479C91.8946 38.2562 92.0525 38.4385 92.2348 38.5947C92.4171 38.751 92.6254 38.8747 92.8598 38.9658C93.0974 39.0537 93.3627 39.0977 93.6557 39.0977C93.9486 39.0977 94.2123 39.0537 94.4467 38.9658C94.6843 38.8747 94.8943 38.751 95.0766 38.5947C95.2589 38.4385 95.4151 38.2562 95.5453 38.0479C95.6788 37.8395 95.7878 37.6149 95.8725 37.374C95.9571 37.1331 96.0189 36.8841 96.058 36.627C96.1003 36.3665 96.1231 36.1094 96.1264 35.8555ZM95.2328 35.0352V35.8555C95.2296 36.0247 95.2182 36.2021 95.1986 36.3877C95.1824 36.5732 95.1514 36.7555 95.1059 36.9346C95.057 37.1169 94.9936 37.291 94.9154 37.457C94.8406 37.6198 94.7462 37.763 94.6322 37.8867C94.515 38.0137 94.3751 38.1146 94.2123 38.1895C94.0528 38.2643 93.8673 38.3018 93.6557 38.3018C93.4441 38.3018 93.2585 38.2643 93.099 38.1895C92.9395 38.1146 92.8012 38.0137 92.684 37.8867C92.5668 37.763 92.4691 37.6182 92.391 37.4521C92.3129 37.2861 92.2494 37.112 92.2006 36.9297C92.1518 36.7507 92.1159 36.5684 92.0932 36.3828C92.0736 36.1973 92.0622 36.0215 92.059 35.8555V35.0352C92.0622 34.8691 92.0736 34.695 92.0932 34.5127C92.1159 34.3271 92.1518 34.1432 92.2006 33.9609C92.2462 33.7819 92.308 33.611 92.3861 33.4482C92.4643 33.2822 92.5619 33.1357 92.6791 33.0088C92.7963 32.8851 92.9346 32.7858 93.0941 32.7109C93.2536 32.6361 93.4376 32.5986 93.6459 32.5986C93.8575 32.5986 94.043 32.6361 94.2025 32.7109C94.362 32.7826 94.5004 32.8802 94.6176 33.0039C94.7348 33.1309 94.8324 33.2773 94.9105 33.4434C94.9887 33.6061 95.0521 33.777 95.101 33.9561C95.1465 34.1383 95.1791 34.3223 95.1986 34.5078C95.2182 34.6901 95.2296 34.8659 95.2328 35.0352ZM103.703 32.6621V31.8906H98.4297V32.6621H100.627V39H101.506V32.6621H103.703ZM110.938 35.8555V35.0449C110.935 34.791 110.912 34.5339 110.87 34.2734C110.831 34.013 110.769 33.7624 110.684 33.5215C110.596 33.2806 110.486 33.056 110.352 32.8477C110.222 32.6361 110.066 32.4521 109.883 32.2959C109.701 32.1396 109.491 32.0176 109.254 31.9297C109.016 31.8385 108.751 31.793 108.458 31.793C108.165 31.793 107.899 31.8385 107.662 31.9297C107.427 32.0176 107.219 32.1396 107.037 32.2959C106.854 32.4554 106.697 32.641 106.563 32.8525C106.433 33.0609 106.325 33.2855 106.241 33.5264C106.153 33.7673 106.088 34.0179 106.046 34.2783C106.006 34.5355 105.985 34.791 105.982 35.0449V35.8555C105.985 36.1094 106.008 36.3649 106.05 36.6221C106.093 36.8792 106.158 37.1283 106.246 37.3691C106.33 37.61 106.439 37.8363 106.573 38.0479C106.706 38.2562 106.864 38.4385 107.046 38.5947C107.229 38.751 107.437 38.8747 107.671 38.9658C107.909 39.0537 108.174 39.0977 108.467 39.0977C108.76 39.0977 109.024 39.0537 109.258 38.9658C109.496 38.8747 109.706 38.751 109.888 38.5947C110.071 38.4385 110.227 38.2562 110.357 38.0479C110.49 37.8395 110.6 37.6149 110.684 37.374C110.769 37.1331 110.831 36.8841 110.87 36.627C110.912 36.3665 110.935 36.1094 110.938 35.8555ZM110.045 35.0352V35.8555C110.041 36.0247 110.03 36.2021 110.01 36.3877C109.994 36.5732 109.963 36.7555 109.918 36.9346C109.869 37.1169 109.805 37.291 109.727 37.457C109.652 37.6198 109.558 37.763 109.444 37.8867C109.327 38.0137 109.187 38.1146 109.024 38.1895C108.865 38.2643 108.679 38.3018 108.467 38.3018C108.256 38.3018 108.07 38.2643 107.911 38.1895C107.751 38.1146 107.613 38.0137 107.496 37.8867C107.379 37.763 107.281 37.6182 107.203 37.4521C107.125 37.2861 107.061 37.112 107.012 36.9297C106.963 36.7507 106.928 36.5684 106.905 36.3828C106.885 36.1973 106.874 36.0215 106.871 35.8555V35.0352C106.874 34.8691 106.885 34.695 106.905 34.5127C106.928 34.3271 106.963 34.1432 107.012 33.9609C107.058 33.7819 107.12 33.611 107.198 33.4482C107.276 33.2822 107.374 33.1357 107.491 33.0088C107.608 32.8851 107.746 32.7858 107.906 32.7109C108.065 32.6361 108.249 32.5986 108.458 32.5986C108.669 32.5986 108.855 32.6361 109.014 32.7109C109.174 32.7826 109.312 32.8802 109.429 33.0039C109.546 33.1309 109.644 33.2773 109.722 33.4434C109.8 33.6061 109.864 33.777 109.913 33.9561C109.958 34.1383 109.991 34.3223 110.01 34.5078C110.03 34.6901 110.041 34.8659 110.045 35.0352Z" fill="white"/>
<path opacity="0.8" d="M27.8188 49.3433L28.3242 51H29.1328L27.1025 44.6016H26.4214L24.356 51H25.1689L25.6831 49.3433H27.8188ZM25.9028 48.6357L26.7598 45.8584L27.6035 48.6357H25.9028ZM31.4974 44.25V44.9575H33.1146V50.2969H31.4974V51H35.4788V50.2969H33.9275V44.25H31.4974ZM38.1026 44.25V44.9575H39.7198V50.2969H38.1026V51H42.0841V50.2969H40.5328V44.25H38.1026ZM53.3039 48.3896L54.5607 51H55.4177L55.4221 50.9473L54.0642 48.2139C54.2399 48.1377 54.4011 48.0454 54.5476 47.937C54.694 47.8286 54.82 47.7041 54.9255 47.5635C55.031 47.4229 55.113 47.2661 55.1716 47.0933C55.2331 46.9204 55.2639 46.73 55.2639 46.522C55.2639 46.1997 55.2067 45.9199 55.0925 45.6826C54.9812 45.4424 54.8273 45.2432 54.6311 45.085C54.4318 44.9268 54.2004 44.8081 53.9367 44.729C53.673 44.6499 53.3918 44.6074 53.093 44.6016H51.2165V51H52.0251V48.3896H53.3039ZM52.0251 47.7217V45.2695H53.093C53.2893 45.2725 53.4694 45.3003 53.6335 45.353C53.8005 45.4058 53.944 45.4834 54.0642 45.5859C54.1843 45.6914 54.278 45.8218 54.3454 45.9771C54.4128 46.1294 54.4465 46.3081 54.4465 46.5132C54.4465 46.7065 54.4113 46.8779 54.341 47.0273C54.2707 47.1738 54.1755 47.2983 54.0554 47.4009C53.9323 47.5034 53.7902 47.5825 53.6291 47.6382C53.468 47.6909 53.2966 47.7188 53.1149 47.7217H52.0251ZM57.9185 46.2451V46.9526H59.5356V50.2969H57.9185V51H61.8999V50.2969H60.3486V46.2451H57.9185ZM59.4302 44.9971C59.4302 45.1289 59.4697 45.2388 59.5488 45.3267C59.6309 45.4146 59.7539 45.4585 59.918 45.4585C60.0791 45.4585 60.2007 45.4146 60.2827 45.3267C60.3647 45.2388 60.4058 45.1289 60.4058 44.9971C60.4058 44.9238 60.394 44.8564 60.3706 44.7949C60.3472 44.7334 60.312 44.6821 60.2651 44.6411C60.2271 44.603 60.1787 44.5737 60.1201 44.5532C60.0615 44.5298 59.9941 44.5181 59.918 44.5181C59.8418 44.5181 59.7729 44.5298 59.7114 44.5532C59.6528 44.5737 59.6045 44.603 59.5664 44.6411C59.5195 44.6851 59.4844 44.7378 59.4609 44.7993C59.4404 44.8608 59.4302 44.9268 59.4302 44.9971ZM64.2469 48.583V48.6753C64.2469 49.0151 64.2908 49.333 64.3787 49.6289C64.4666 49.9219 64.5926 50.1768 64.7566 50.3936C64.9178 50.6104 65.1155 50.7803 65.3499 50.9033C65.5843 51.0264 65.8465 51.0879 66.1365 51.0879C66.3094 51.0879 66.4705 51.0688 66.6199 51.0308C66.7693 50.9956 66.9056 50.9443 67.0286 50.877C67.1077 50.833 67.181 50.7817 67.2483 50.7231C67.3187 50.6646 67.3846 50.6001 67.4461 50.5298V50.9385C67.4461 51.1436 67.4168 51.3252 67.3582 51.4834C67.2996 51.6416 67.2161 51.7734 67.1077 51.8789C66.9964 51.9873 66.8631 52.0693 66.7078 52.125C66.5525 52.1807 66.3782 52.2085 66.1849 52.2085C66.0765 52.2085 65.9681 52.1968 65.8597 52.1733C65.7513 52.1528 65.6429 52.1177 65.5345 52.0679C65.4261 52.0181 65.3191 51.9507 65.2137 51.8657C65.1082 51.7837 65.0057 51.6826 64.9061 51.5625L64.4842 52.0503C64.5926 52.2056 64.7215 52.3359 64.8709 52.4414C65.0232 52.5469 65.1814 52.6304 65.3455 52.6919C65.5066 52.7563 65.6663 52.8018 65.8245 52.8281C65.9827 52.8574 66.1233 52.8721 66.2464 52.8721C66.5452 52.8721 66.8177 52.8281 67.0638 52.7402C67.3099 52.6523 67.5223 52.5234 67.701 52.3535C67.8768 52.1836 68.013 51.9771 68.1097 51.7339C68.2093 51.4907 68.2591 51.2124 68.2591 50.8989V46.2451H67.5208L67.4813 46.7637C67.4256 46.6934 67.3655 46.6289 67.3011 46.5703C67.2396 46.5117 67.1736 46.4604 67.1033 46.4165C66.9744 46.3315 66.8294 46.2671 66.6683 46.2231C66.5101 46.1792 66.3357 46.1572 66.1453 46.1572C65.8494 46.1572 65.5843 46.2173 65.3499 46.3374C65.1155 46.4575 64.9163 46.6245 64.7522 46.8384C64.5882 47.0522 64.4622 47.3086 64.3743 47.6074C64.2894 47.9033 64.2469 48.2285 64.2469 48.583ZM65.0599 48.6753V48.583C65.0599 48.3516 65.0833 48.1318 65.1302 47.9238C65.18 47.7129 65.2576 47.5269 65.3631 47.3657C65.4656 47.2075 65.5975 47.0815 65.7586 46.9878C65.9227 46.894 66.1189 46.8472 66.3475 46.8472C66.4822 46.8472 66.6053 46.8647 66.7166 46.8999C66.8279 46.9321 66.929 46.9775 67.0198 47.0361C67.1106 47.0977 67.1912 47.1694 67.2615 47.2515C67.3318 47.3335 67.3934 47.4243 67.4461 47.5239V49.7036C67.3934 49.8062 67.3318 49.8999 67.2615 49.9849C67.1912 50.0698 67.1121 50.1431 67.0242 50.2046C66.9334 50.2661 66.8309 50.3145 66.7166 50.3496C66.6053 50.3818 66.4793 50.3979 66.3387 50.3979C66.1131 50.3979 65.9197 50.3525 65.7586 50.2617C65.5975 50.168 65.4656 50.042 65.3631 49.8838C65.2576 49.7256 65.18 49.5425 65.1302 49.3345C65.0833 49.1265 65.0599 48.9067 65.0599 48.6753ZM71.8146 46.9526V44.25H71.0016V51H71.8146V47.5459C71.8731 47.4521 71.9391 47.3672 72.0123 47.291C72.0885 47.2119 72.1705 47.1431 72.2584 47.0845C72.3697 47.0083 72.4913 46.9497 72.6231 46.9087C72.755 46.8677 72.8941 46.8472 73.0406 46.8472C73.2193 46.8442 73.3775 46.8691 73.5152 46.9219C73.6529 46.9717 73.7672 47.0479 73.858 47.1504C73.943 47.2441 74.0074 47.3628 74.0514 47.5063C74.0953 47.647 74.1173 47.811 74.1173 47.9985V51H74.9303V48.0073C74.9303 47.688 74.8907 47.4126 74.8116 47.1812C74.7355 46.9468 74.6256 46.7534 74.482 46.6011C74.3385 46.4487 74.1642 46.3374 73.9591 46.2671C73.7569 46.1938 73.5313 46.1572 73.2823 46.1572C73.0919 46.1602 72.9117 46.188 72.7418 46.2407C72.5748 46.2935 72.421 46.3711 72.2804 46.4736C72.1925 46.5352 72.109 46.6069 72.0299 46.689C71.9508 46.7681 71.879 46.856 71.8146 46.9526ZM79.5316 45.0938H78.7143V46.2451H77.4662V46.8735H78.7143V49.4575C78.7143 49.7505 78.7523 50.001 78.8285 50.209C78.9076 50.4141 79.0145 50.5811 79.1493 50.71C79.2841 50.8418 79.4423 50.9385 79.6239 51C79.8085 51.0586 80.0062 51.0879 80.2172 51.0879C80.3432 51.0879 80.4691 51.082 80.5951 51.0703C80.724 51.0586 80.8456 51.041 80.9599 51.0176C81.0741 50.9971 81.1796 50.9722 81.2763 50.9429C81.3729 50.9106 81.455 50.874 81.5224 50.833L81.4081 50.2573C81.3583 50.269 81.2938 50.2837 81.2147 50.3013C81.1386 50.3159 81.0565 50.3306 80.9687 50.3452C80.8778 50.3599 80.7855 50.373 80.6918 50.3848C80.598 50.3936 80.5072 50.3979 80.4193 50.3979C80.2992 50.3979 80.185 50.3833 80.0766 50.354C79.9711 50.3247 79.8773 50.2734 79.7953 50.2002C79.7133 50.1299 79.6488 50.0347 79.602 49.9146C79.5551 49.7944 79.5316 49.6421 79.5316 49.4575V46.8735H81.3422V46.2451H79.5316V45.0938ZM87.3718 49.7388C87.3718 49.8149 87.3571 49.8867 87.3278 49.9541C87.2985 50.0215 87.2561 50.083 87.2004 50.1387C87.1096 50.2295 86.9836 50.3013 86.8225 50.354C86.6613 50.4038 86.4724 50.4287 86.2556 50.4287C86.1179 50.4287 85.9787 50.4141 85.8381 50.3848C85.6975 50.3555 85.57 50.3057 85.4558 50.2354C85.3386 50.165 85.2404 50.0728 85.1613 49.9585C85.0852 49.8442 85.0412 49.7036 85.0295 49.5366H84.2165C84.2165 49.7388 84.2619 49.9336 84.3527 50.1211C84.4465 50.3086 84.5812 50.4727 84.757 50.6133C84.9299 50.7568 85.1423 50.8726 85.3942 50.9604C85.6462 51.0454 85.9333 51.0879 86.2556 51.0879C86.5368 51.0879 86.7961 51.0542 87.0334 50.9868C87.2707 50.9194 87.4743 50.8242 87.6442 50.7012C87.8142 50.5781 87.946 50.4302 88.0397 50.2573C88.1364 50.0845 88.1848 49.8926 88.1848 49.6816C88.1848 49.4854 88.1423 49.3125 88.0573 49.1631C87.9753 49.0137 87.8552 48.8818 87.697 48.7676C87.5388 48.6562 87.3439 48.561 87.1125 48.4819C86.8811 48.3999 86.6188 48.3281 86.3259 48.2666C86.1032 48.2227 85.9187 48.1772 85.7722 48.1304C85.6286 48.0835 85.5144 48.0308 85.4294 47.9722C85.3415 47.9136 85.28 47.8477 85.2448 47.7744C85.2097 47.7012 85.1921 47.6177 85.1921 47.5239C85.1921 47.4331 85.2141 47.3452 85.258 47.2603C85.302 47.1753 85.3679 47.1006 85.4558 47.0361C85.5407 46.9717 85.6477 46.9204 85.7766 46.8823C85.9084 46.8442 86.0607 46.8252 86.2336 46.8252C86.4006 46.8252 86.55 46.8486 86.6818 46.8955C86.8166 46.9424 86.9309 47.0039 87.0246 47.0801C87.1184 47.1562 87.1916 47.2441 87.2443 47.3438C87.2971 47.4404 87.3234 47.54 87.3234 47.6426H88.1364C88.1364 47.4346 88.091 47.2412 88.0002 47.0625C87.9123 46.8809 87.7863 46.7227 87.6223 46.5879C87.4582 46.4531 87.259 46.3477 87.0246 46.2715C86.7902 46.1953 86.5266 46.1572 86.2336 46.1572C85.9611 46.1572 85.7106 46.1938 85.4821 46.2671C85.2565 46.3403 85.0617 46.4399 84.8977 46.5659C84.7336 46.6919 84.6062 46.8398 84.5153 47.0098C84.4245 47.1768 84.3791 47.3569 84.3791 47.5503C84.3791 47.7466 84.423 47.9194 84.5109 48.0688C84.5988 48.2153 84.7233 48.3428 84.8845 48.4512C85.0427 48.5625 85.2331 48.6577 85.4558 48.7368C85.6813 48.8159 85.9304 48.8833 86.2028 48.939C86.4255 48.9829 86.6115 49.0327 86.7609 49.0884C86.9104 49.1411 87.0305 49.1997 87.1213 49.2642C87.2121 49.3286 87.2766 49.4004 87.3146 49.4795C87.3527 49.5557 87.3718 49.6421 87.3718 49.7388ZM99.5408 48.3896L100.798 51H101.655L101.659 50.9473L100.301 48.2139C100.477 48.1377 100.638 48.0454 100.784 47.937C100.931 47.8286 101.057 47.7041 101.162 47.5635C101.268 47.4229 101.35 47.2661 101.408 47.0933C101.47 46.9204 101.501 46.73 101.501 46.522C101.501 46.1997 101.444 45.9199 101.329 45.6826C101.218 45.4424 101.064 45.2432 100.868 45.085C100.669 44.9268 100.437 44.8081 100.174 44.729C99.91 44.6499 99.6287 44.6074 99.3299 44.6016H97.4534V51H98.262V48.3896H99.5408ZM98.262 47.7217V45.2695H99.3299C99.5262 45.2725 99.7063 45.3003 99.8704 45.353C100.037 45.4058 100.181 45.4834 100.301 45.5859C100.421 45.6914 100.515 45.8218 100.582 45.9771C100.65 46.1294 100.683 46.3081 100.683 46.5132C100.683 46.7065 100.648 46.8779 100.578 47.0273C100.508 47.1738 100.412 47.2983 100.292 47.4009C100.169 47.5034 100.027 47.5825 99.866 47.6382C99.7049 47.6909 99.5335 47.7188 99.3519 47.7217H98.262ZM106.129 51.0879C106.591 51.0879 106.98 50.9956 107.293 50.811C107.609 50.6235 107.847 50.4097 108.005 50.1694L107.508 49.7827C107.359 49.9761 107.171 50.1313 106.946 50.2485C106.72 50.3657 106.463 50.4243 106.172 50.4243C105.953 50.4243 105.752 50.3833 105.57 50.3013C105.389 50.2192 105.233 50.1064 105.105 49.9629C104.979 49.8281 104.879 49.6729 104.806 49.4971C104.735 49.3213 104.69 49.1177 104.67 48.8862V48.8555H108.067V48.4907C108.067 48.1597 108.024 47.8521 107.939 47.5679C107.857 47.2837 107.731 47.0361 107.561 46.8252C107.391 46.6172 107.177 46.4546 106.92 46.3374C106.665 46.2173 106.366 46.1572 106.023 46.1572C105.751 46.1572 105.484 46.2129 105.223 46.3242C104.965 46.4355 104.735 46.5952 104.533 46.8032C104.328 47.0142 104.164 47.272 104.041 47.5767C103.918 47.8784 103.857 48.2212 103.857 48.605V48.7896C103.857 49.1206 103.912 49.4268 104.024 49.708C104.135 49.9893 104.29 50.2324 104.489 50.4375C104.689 50.6426 104.927 50.8022 105.206 50.9165C105.487 51.0308 105.795 51.0879 106.129 51.0879ZM106.023 46.8252C106.231 46.8252 106.41 46.8633 106.559 46.9395C106.712 47.0156 106.838 47.1152 106.937 47.2383C107.037 47.3613 107.114 47.5078 107.17 47.6777C107.226 47.8447 107.254 48.0015 107.254 48.1479V48.1875H104.696C104.728 47.9678 104.784 47.7744 104.863 47.6074C104.945 47.4375 105.045 47.2939 105.162 47.1768C105.279 47.0625 105.411 46.9761 105.557 46.9175C105.704 46.856 105.859 46.8252 106.023 46.8252ZM113.793 49.7388C113.793 49.8149 113.778 49.8867 113.749 49.9541C113.72 50.0215 113.677 50.083 113.621 50.1387C113.531 50.2295 113.405 50.3013 113.244 50.354C113.082 50.4038 112.893 50.4287 112.677 50.4287C112.539 50.4287 112.4 50.4141 112.259 50.3848C112.119 50.3555 111.991 50.3057 111.877 50.2354C111.76 50.165 111.662 50.0728 111.582 49.9585C111.506 49.8442 111.462 49.7036 111.451 49.5366H110.638C110.638 49.7388 110.683 49.9336 110.774 50.1211C110.868 50.3086 111.002 50.4727 111.178 50.6133C111.351 50.7568 111.563 50.8726 111.815 50.9604C112.067 51.0454 112.354 51.0879 112.677 51.0879C112.958 51.0879 113.217 51.0542 113.454 50.9868C113.692 50.9194 113.895 50.8242 114.065 50.7012C114.235 50.5781 114.367 50.4302 114.461 50.2573C114.558 50.0845 114.606 49.8926 114.606 49.6816C114.606 49.4854 114.563 49.3125 114.478 49.1631C114.396 49.0137 114.276 48.8818 114.118 48.7676C113.96 48.6562 113.765 48.561 113.534 48.4819C113.302 48.3999 113.04 48.3281 112.747 48.2666C112.524 48.2227 112.34 48.1772 112.193 48.1304C112.05 48.0835 111.935 48.0308 111.85 47.9722C111.763 47.9136 111.701 47.8477 111.666 47.7744C111.631 47.7012 111.613 47.6177 111.613 47.5239C111.613 47.4331 111.635 47.3452 111.679 47.2603C111.723 47.1753 111.789 47.1006 111.877 47.0361C111.962 46.9717 112.069 46.9204 112.198 46.8823C112.329 46.8442 112.482 46.8252 112.655 46.8252C112.822 46.8252 112.971 46.8486 113.103 46.8955C113.238 46.9424 113.352 47.0039 113.446 47.0801C113.539 47.1562 113.613 47.2441 113.665 47.3438C113.718 47.4404 113.745 47.54 113.745 47.6426H114.558C114.558 47.4346 114.512 47.2412 114.421 47.0625C114.333 46.8809 114.207 46.7227 114.043 46.5879C113.879 46.4531 113.68 46.3477 113.446 46.2715C113.211 46.1953 112.948 46.1572 112.655 46.1572C112.382 46.1572 112.132 46.1938 111.903 46.2671C111.678 46.3403 111.483 46.4399 111.319 46.5659C111.155 46.6919 111.027 46.8398 110.936 47.0098C110.846 47.1768 110.8 47.3569 110.8 47.5503C110.8 47.7466 110.844 47.9194 110.932 48.0688C111.02 48.2153 111.144 48.3428 111.306 48.4512C111.464 48.5625 111.654 48.6577 111.877 48.7368C112.102 48.8159 112.351 48.8833 112.624 48.939C112.847 48.9829 113.033 49.0327 113.182 49.0884C113.331 49.1411 113.452 49.1997 113.542 49.2642C113.633 49.3286 113.698 49.4004 113.736 49.4795C113.774 49.5557 113.793 49.6421 113.793 49.7388ZM119.339 51.0879C119.802 51.0879 120.19 50.9956 120.504 50.811C120.82 50.6235 121.057 50.4097 121.216 50.1694L120.719 49.7827C120.57 49.9761 120.382 50.1313 120.156 50.2485C119.931 50.3657 119.673 50.4243 119.383 50.4243C119.163 50.4243 118.963 50.3833 118.781 50.3013C118.599 50.2192 118.444 50.1064 118.315 49.9629C118.189 49.8281 118.09 49.6729 118.016 49.4971C117.946 49.3213 117.901 49.1177 117.88 48.8862V48.8555H121.277V48.4907C121.277 48.1597 121.235 47.8521 121.15 47.5679C121.068 47.2837 120.942 47.0361 120.772 46.8252C120.602 46.6172 120.388 46.4546 120.13 46.3374C119.875 46.2173 119.576 46.1572 119.234 46.1572C118.961 46.1572 118.695 46.2129 118.434 46.3242C118.176 46.4355 117.946 46.5952 117.744 46.8032C117.539 47.0142 117.375 47.272 117.252 47.5767C117.129 47.8784 117.067 48.2212 117.067 48.605V48.7896C117.067 49.1206 117.123 49.4268 117.234 49.708C117.345 49.9893 117.501 50.2324 117.7 50.4375C117.899 50.6426 118.138 50.8022 118.416 50.9165C118.697 51.0308 119.005 51.0879 119.339 51.0879ZM119.234 46.8252C119.442 46.8252 119.62 46.8633 119.77 46.9395C119.922 47.0156 120.048 47.1152 120.148 47.2383C120.247 47.3613 120.325 47.5078 120.381 47.6777C120.436 47.8447 120.464 48.0015 120.464 48.1479V48.1875H117.906C117.939 47.9678 117.994 47.7744 118.073 47.6074C118.155 47.4375 118.255 47.2939 118.372 47.1768C118.489 47.0625 118.621 46.9761 118.768 46.9175C118.914 46.856 119.07 46.8252 119.234 46.8252ZM126.959 46.1572C126.614 46.1572 126.305 46.2334 126.032 46.3857C125.763 46.5352 125.531 46.7402 125.338 47.001L125.333 46.8823L125.298 46.2451H124.525V51H125.342V47.9502C125.395 47.8037 125.461 47.6719 125.54 47.5547C125.622 47.4346 125.717 47.3335 125.826 47.2515C125.946 47.1577 126.086 47.0874 126.248 47.0405C126.409 46.9907 126.589 46.9658 126.788 46.9658C126.943 46.9658 127.091 46.9746 127.232 46.9922C127.375 47.0068 127.526 47.0317 127.685 47.0669L127.794 46.2715C127.712 46.2363 127.589 46.2085 127.425 46.188C127.264 46.1675 127.109 46.1572 126.959 46.1572ZM132.071 51H132.69L134.628 46.2451H133.798L132.466 49.8311L132.387 50.1255L132.312 49.8311L130.95 46.2451H130.115L132.071 51ZM139.155 51.0879C139.618 51.0879 140.006 50.9956 140.319 50.811C140.636 50.6235 140.873 50.4097 141.031 50.1694L140.535 49.7827C140.385 49.9761 140.198 50.1313 139.972 50.2485C139.747 50.3657 139.489 50.4243 139.199 50.4243C138.979 50.4243 138.778 50.3833 138.597 50.3013C138.415 50.2192 138.26 50.1064 138.131 49.9629C138.005 49.8281 137.905 49.6729 137.832 49.4971C137.762 49.3213 137.716 49.1177 137.696 48.8862V48.8555H141.093V48.4907C141.093 48.1597 141.05 47.8521 140.965 47.5679C140.883 47.2837 140.757 47.0361 140.588 46.8252C140.418 46.6172 140.204 46.4546 139.946 46.3374C139.691 46.2173 139.392 46.1572 139.049 46.1572C138.777 46.1572 138.51 46.2129 138.25 46.3242C137.992 46.4355 137.762 46.5952 137.56 46.8032C137.355 47.0142 137.191 47.272 137.067 47.5767C136.944 47.8784 136.883 48.2212 136.883 48.605V48.7896C136.883 49.1206 136.939 49.4268 137.05 49.708C137.161 49.9893 137.317 50.2324 137.516 50.4375C137.715 50.6426 137.954 50.8022 138.232 50.9165C138.513 51.0308 138.821 51.0879 139.155 51.0879ZM139.049 46.8252C139.257 46.8252 139.436 46.8633 139.586 46.9395C139.738 47.0156 139.864 47.1152 139.963 47.2383C140.063 47.3613 140.141 47.5078 140.196 47.6777C140.252 47.8447 140.28 48.0015 140.28 48.1479V48.1875H137.722C137.754 47.9678 137.81 47.7744 137.889 47.6074C137.971 47.4375 138.071 47.2939 138.188 47.1768C138.305 47.0625 138.437 46.9761 138.584 46.9175C138.73 46.856 138.885 46.8252 139.049 46.8252ZM143.506 48.583V48.6753C143.506 49.0151 143.551 49.333 143.642 49.6289C143.733 49.9219 143.86 50.1768 144.024 50.3936C144.188 50.6104 144.386 50.7803 144.618 50.9033C144.852 51.0264 145.113 51.0879 145.4 51.0879C145.693 51.0879 145.949 51.0381 146.169 50.9385C146.389 50.8389 146.578 50.6924 146.736 50.499L146.771 51H147.518V44.25H146.705V46.7153C146.55 46.5337 146.365 46.396 146.151 46.3022C145.94 46.2056 145.693 46.1572 145.409 46.1572C145.119 46.1572 144.856 46.2173 144.622 46.3374C144.388 46.4575 144.188 46.6245 144.024 46.8384C143.857 47.0522 143.728 47.3086 143.638 47.6074C143.55 47.9033 143.506 48.2285 143.506 48.583ZM144.319 48.6753V48.583C144.319 48.3516 144.344 48.1318 144.393 47.9238C144.443 47.7129 144.521 47.5269 144.626 47.3657C144.729 47.2075 144.861 47.0815 145.022 46.9878C145.186 46.894 145.382 46.8472 145.611 46.8472C145.877 46.8472 146.1 46.9102 146.279 47.0361C146.457 47.1592 146.6 47.3174 146.705 47.5107V49.7168C146.6 49.9248 146.457 50.0903 146.279 50.2134C146.1 50.3364 145.874 50.3979 145.602 50.3979C145.376 50.3979 145.183 50.3525 145.022 50.2617C144.861 50.168 144.729 50.042 144.626 49.8838C144.521 49.7256 144.443 49.5425 144.393 49.3345C144.344 49.1265 144.319 48.9067 144.319 48.6753Z" fill="white"/>
<path d="M169.56 17.6147V22.1116L167.613 23.2292L165.666 22.1116V17.6147L167.613 16.4971L169.56 17.6147Z" fill="white" fill-opacity="0.1" stroke="white" stroke-miterlimit="10"/>
<path d="M163.727 12L167.613 14.2528V16.4969L165.666 17.6145L161.78 15.3705V13.1264L163.727 12Z" fill="white" fill-opacity="0.1" stroke="white" stroke-miterlimit="10"/>
<path d="M155.947 14.2528L159.833 12L161.78 13.1264V15.3705L157.886 17.6145L155.947 16.4969V14.2528Z" fill="white" fill-opacity="0.1" stroke="white" stroke-miterlimit="10"/>
<path d="M154 22.1116V17.6147L155.947 16.4971L157.886 17.6147V22.1116L155.947 23.2292L154 22.1116Z" fill="white" fill-opacity="0.1" stroke="white" stroke-miterlimit="10"/>
<path d="M159.833 27.7171L155.947 25.4731V23.229L157.886 22.1113L161.78 24.3554V26.5995L159.833 27.7171Z" fill="white" fill-opacity="0.1" stroke="white" stroke-miterlimit="10"/>
<path d="M167.613 25.4731L163.727 27.7171L161.78 26.5995V24.3554L165.666 22.1113L167.613 23.229V25.4731Z" fill="white" fill-opacity="0.1" stroke="white" stroke-miterlimit="10"/>
<rect x="23" y="12" width="4" height="15" fill="white"/>
<rect x="147" y="27" width="4" height="15" transform="rotate(-180 147 27)" fill="white"/>
<rect x="69" y="12" width="3" height="15" fill="white"/>
<rect x="126" y="12" width="4" height="15" fill="white"/>
<rect x="77" y="12" width="3" height="15" fill="white"/>
<rect x="28" y="12" width="1" height="15" fill="white"/>
<rect x="142" y="27" width="1" height="15" transform="rotate(-180 142 27)" fill="white"/>
<rect x="36" y="12" width="1" height="15" fill="white"/>
<rect x="43" y="12" width="1" height="15" fill="white"/>
<rect x="48" y="12" width="1" height="15" fill="white"/>
<rect x="50" y="12" width="1" height="15" fill="white"/>
<rect x="60" y="12" width="1" height="15" fill="white"/>
<rect x="111" y="12" width="1" height="15" fill="white"/>
<rect x="136" y="12" width="1" height="15" fill="white"/>
<rect x="113" y="12" width="1" height="15" fill="white"/>
<rect x="139" y="12" width="1" height="15" fill="white"/>
<rect x="123" y="12" width="1" height="15" fill="white"/>
<rect x="83" y="12" width="1" height="15" fill="white"/>
<rect x="91" y="12" width="1" height="15" fill="white"/>
<rect x="94" y="12" width="1" height="15" fill="white"/>
<rect x="32" y="12" width="3" height="15" fill="white"/>
<rect x="55" y="12" width="2" height="15" fill="white"/>
<rect x="86" y="12" width="2" height="15" fill="white"/>
<rect x="73" y="12" width="3" height="15" fill="white"/>
<rect x="66" y="12" width="2" height="15" fill="white"/>
<rect x="98" y="12" width="2" height="15" fill="white"/>
<rect x="102" y="12" width="2" height="15" fill="white"/>
<rect x="106" y="12" width="2" height="15" fill="white"/>
<rect x="118" y="12" width="2" height="15" fill="white"/>
<rect x="133" y="12" width="2" height="15" fill="white"/>
<rect x="40" y="12" width="2" height="15" fill="white"/>
</g>
</svg>
