<svg width="103" height="448" viewBox="0 0 103 448" fill="none" xmlns="http://www.w3.org/2000/svg">
<g filter="url(#filter0_bi)">
<path d="M0 153.565L0 140.461L0 51.5C0 23.0573 23.0573 0 51.5 0C79.9427 0 103 23.0573 103 51.5L103 396.5C103 424.943 79.9427 448 51.5 448C23.0573 448 0 424.943 0 396.5L0 167.898L0 153.565Z" fill="white" fill-opacity="0.03"/>
<path d="M0.5 153.565L0.5 140.461L0.5 51.5C0.5 23.3335 23.3335 0.5 51.5 0.5C79.6665 0.5 102.5 23.3335 102.5 51.5L102.5 396.5C102.5 424.667 79.6665 447.5 51.5 447.5C23.3335 447.5 0.5 424.667 0.5 396.5L0.5 167.898L0.5 153.565Z" stroke="url(#paint0_linear)"/>
<path d="M0.5 153.565L0.5 140.461L0.5 51.5C0.5 23.3335 23.3335 0.5 51.5 0.5C79.6665 0.5 102.5 23.3335 102.5 51.5L102.5 396.5C102.5 424.667 79.6665 447.5 51.5 447.5C23.3335 447.5 0.5 424.667 0.5 396.5L0.5 167.898L0.5 153.565Z" stroke="url(#paint1_linear)"/>
</g>
<defs>
<filter id="filter0_bi" x="-15" y="-15" width="133" height="478" filterUnits="userSpaceOnUse" color-interpolation-filters="sRGB">
<feFlood flood-opacity="0" result="BackgroundImageFix"/>
<feGaussianBlur in="BackgroundImage" stdDeviation="7.5"/>
<feComposite in2="SourceAlpha" operator="in" result="effect1_backgroundBlur"/>
<feBlend mode="normal" in="SourceGraphic" in2="effect1_backgroundBlur" result="shape"/>
<feColorMatrix in="SourceAlpha" type="matrix" values="0 0 0 0 0 0 0 0 0 0 0 0 0 0 0 0 0 0 127 0" result="hardAlpha"/>
<feOffset dy="0.798571"/>
<feGaussianBlur stdDeviation="5"/>
<feComposite in2="hardAlpha" operator="arithmetic" k2="-1" k3="1"/>
<feColorMatrix type="matrix" values="0 0 0 0 0.888917 0 0 0 0 0.870833 0 0 0 0 1 0 0 0 0.2 0"/>
<feBlend mode="normal" in2="shape" result="effect2_innerShadow"/>
</filter>
<linearGradient id="paint0_linear" x1="19.0001" y1="11.0566" x2="-2.71818" y2="149.445" gradientUnits="userSpaceOnUse">
<stop stop-color="white" stop-opacity="0"/>
<stop offset="0.515625" stop-color="white"/>
<stop offset="1" stop-color="white" stop-opacity="0"/>
</linearGradient>
<linearGradient id="paint1_linear" x1="13.5" y1="482.399" x2="88.4305" y2="435.822" gradientUnits="userSpaceOnUse">
<stop stop-color="white"/>
<stop offset="1" stop-color="white" stop-opacity="0"/>
</linearGradient>
</defs>
</svg>
