<svg width="14" height="14" viewBox="0 0 14 14" fill="none" xmlns="http://www.w3.org/2000/svg">
<g clip-path="url(#clip0)">
<path d="M2.66574 1.5239C1.82771 1.5239 1.27979 2.07419 1.27979 2.79747C1.27979 3.50478 1.81138 4.07077 2.63358 4.07077H2.64948C3.50391 4.07077 4.03564 3.50478 4.03564 2.79747C4.01967 2.07419 3.50391 1.5239 2.66574 1.5239Z" fill="#EBEBFC"/>
<path d="M1.42456 5.07713H3.87448V12.4478H1.42456V5.07713Z" fill="#EBEBFC"/>
<path d="M9.88783 4.90413C8.5662 4.90413 7.67997 6.14604 7.67997 6.14604V5.07712H5.22998V12.4478H7.67983V8.33172C7.67983 8.11137 7.6958 7.89136 7.76053 7.73379C7.93764 7.29378 8.34068 6.83793 9.01751 6.83793C9.90402 6.83793 10.2586 7.51385 10.2586 8.50471V12.4478H12.7083V8.22158C12.7083 5.95763 11.4996 4.90413 9.88783 4.90413Z" fill="#EBEBFC"/>
</g>
<defs>
<clipPath id="clip0">
<rect width="12.1905" height="12.1905" fill="white" transform="translate(0.904785 0.904884)"/>
</clipPath>
</defs>
</svg>
