<svg width="89" height="22" viewBox="0 0 89 22" fill="none" xmlns="http://www.w3.org/2000/svg">
<g clip-path="url(#clip0)">
<path d="M86.9186 17.3173C87.154 17.2585 87.2716 17.1408 87.2716 16.9055C87.2716 16.6113 87.0951 16.4937 86.7421 16.4937H86.1538V17.9645H86.3891V17.3173H86.6245L87.0363 17.9645H87.2716L86.9186 17.3173ZM86.6833 17.1408H86.448V16.6702H86.7421C86.9186 16.6702 87.0951 16.6701 87.0951 16.9055C87.0951 17.1408 86.9186 17.1408 86.6833 17.1408Z" fill="white"/>
<path d="M86.742 15.8463C85.9772 15.8463 85.33 16.4346 85.33 17.2583C85.33 18.0231 85.9184 18.6703 86.742 18.6703C87.5068 18.6703 88.154 18.0819 88.154 17.2583C88.0952 16.4346 87.5068 15.8463 86.742 15.8463ZM86.742 18.4349C86.0949 18.4349 85.5654 17.9054 85.5654 17.1995C85.5654 16.4935 86.0949 15.964 86.742 15.964C87.3892 15.964 87.9187 16.4935 87.9187 17.1995C87.9187 17.9054 87.3892 18.4349 86.742 18.4349ZM0.846191 3.31492H4.14083V15.258H10.1418V18.2584H0.846191V3.31492ZM11.6126 8.13921H14.7307V18.2584H11.6126V8.13921ZM13.2011 3.07959C14.2012 3.07959 15.0249 3.90325 15.0249 4.90341C15.0249 5.90356 14.2012 6.72722 13.2011 6.72722C12.2009 6.72722 11.3773 5.90356 11.3773 4.90341C11.3773 3.90325 12.1421 3.07959 13.2011 3.07959ZM27.8504 3.31492H31.0274V12.2575L34.5574 8.13921H38.4403L34.322 12.787L38.3227 18.2584H34.3809L31.0274 13.2577V18.2584H27.8504V3.31492ZM16.4957 8.13921H19.4962V9.49236H19.555C19.9668 8.6687 21.0258 7.84504 22.5555 7.84504C25.7324 7.84504 26.3208 9.96302 26.3208 12.6693V18.1996H23.2026V13.2577C23.2026 12.081 23.2026 10.5514 21.5553 10.5514C19.908 10.5514 19.6727 11.8457 19.6727 13.14V18.1408H16.5545V8.13921H16.4957Z" fill="white"/>
<path d="M45.0296 12.0224C45.0296 10.9634 44.206 10.081 43.0882 10.081C41.735 10.081 40.9702 11.0223 40.8525 12.0224H45.0296ZM47.6771 16.4937C46.677 17.788 45.0296 18.494 43.3823 18.494C40.2642 18.494 37.7344 16.3761 37.7344 13.1403C37.7344 9.90446 40.2642 7.78647 43.3823 7.78647C46.324 7.78647 48.1478 9.90446 48.1478 13.1403V14.1404H40.8525C41.0878 15.3171 42.0292 16.0819 43.2058 16.0819C44.206 16.0819 44.912 15.5524 45.4415 14.8464L47.6771 16.4937ZM54.6782 10.5516C53.0897 10.5516 52.1484 11.6106 52.1484 13.1403C52.1484 14.6699 53.0897 15.7289 54.6782 15.7289C56.2667 15.7289 57.208 14.6699 57.208 13.1403C57.208 11.6106 56.2667 10.5516 54.6782 10.5516ZM60.0908 18.2587H57.208V16.9056H57.1492C56.6785 17.6115 55.443 18.494 54.031 18.494C51.0306 18.494 49.0303 16.3172 49.0303 13.2579C49.0303 10.4339 50.7952 7.84531 53.6781 7.84531C54.9724 7.84531 56.2079 8.1983 56.9139 9.19846H56.9727V3.31519H60.0908V18.2587Z" fill="white"/>
<path fill-rule="evenodd" clip-rule="evenodd" d="M64.7975 0.196777H82.8591C83.7416 0.196777 84.4476 0.90277 84.4476 1.72643V19.8469C84.4476 20.6706 83.7416 21.3766 82.8591 21.3766H64.7975C63.915 21.3766 63.209 20.6706 63.209 19.8469V1.72643C63.209 0.90277 63.915 0.196777 64.7975 0.196777ZM69.3003 8.37498H66.1822V18.4942H69.3003V8.37498ZM69.5945 5.19801C69.5945 4.19786 68.7708 3.3742 67.7707 3.3742C66.7705 3.3742 65.9469 4.13902 65.9469 5.19801C65.9469 6.19817 66.7705 7.02183 67.7707 7.02183C68.7708 7.02183 69.5945 6.19817 69.5945 5.19801ZM74.3011 8.37498H71.3595V18.3766H74.4776V13.3758C74.4776 12.0814 74.713 10.7871 76.3603 10.7871C78.0076 10.7871 78.0076 12.3168 78.0076 13.4934V18.4354H81.1257V12.9051C81.1257 10.1988 80.5374 8.08082 77.3604 8.08082C75.8308 8.08082 74.7718 8.90448 74.36 9.72814H74.3011V8.37498Z" fill="white"/>
</g>
<defs>
<clipPath id="clip0">
<rect width="87.3754" height="21.1798" fill="white" transform="translate(0.8125 0.196777)"/>
</clipPath>
</defs>
</svg>
