<svg width="133" height="32" viewBox="0 0 133 32" fill="none" xmlns="http://www.w3.org/2000/svg">
<path d="M52.9049 12.2888C54.2334 12.6266 55.258 13.2796 55.9786 14.2478C56.6991 15.2161 57.0594 16.4883 57.0594 18.0646C57.0594 20.1137 56.4402 21.735 55.2017 22.9284C53.9632 24.0993 52.2631 24.6848 50.1014 24.6848H41.7249V1.64917H49.3246C51.3737 1.64917 52.9837 2.1896 54.1546 3.27045C55.3256 4.32878 55.911 5.7474 55.911 7.5263C55.911 8.6747 55.6521 9.66548 55.1342 10.4986C54.6162 11.3093 53.8732 11.906 52.9049 12.2888ZM44.2581 11.4782H49.6286C52.038 11.4782 53.2427 10.1609 53.2427 7.5263C53.2427 6.33286 52.8936 5.40963 52.1956 4.75662C51.4975 4.1036 50.5293 3.7771 49.2908 3.7771H44.2581V11.4782ZM49.7637 22.5907C51.2048 22.5907 52.3307 22.1853 53.1413 21.3747C53.9745 20.5641 54.3911 19.4607 54.3911 18.0646C54.3911 16.6685 53.9745 15.5764 53.1413 14.7883C52.3307 13.9776 51.2048 13.5723 49.7637 13.5723H44.2581V22.5907H49.7637Z" fill="white"/>
<path d="M68.4157 8.33694C69.9244 8.33694 71.2755 8.69722 72.4689 9.41779C73.6624 10.1384 74.5969 11.1404 75.2724 12.4239C75.9479 13.7074 76.2857 15.1711 76.2857 16.8149C76.2857 18.4361 75.9479 19.8885 75.2724 21.172C74.6194 22.433 73.6961 23.4238 72.5027 24.1444C71.3318 24.8649 69.992 25.2252 68.4833 25.2252C67.3349 25.2252 66.2766 24.9775 65.3083 24.4821C64.3626 23.9642 63.5632 23.2437 62.9102 22.3204V31.4401H60.6133V8.87736H62.9102V11.2079C63.5632 10.3072 64.3626 9.60919 65.3083 9.1138C66.254 8.59589 67.2899 8.33694 68.4157 8.33694ZM68.4833 23.1311C69.5416 23.1311 70.4874 22.8609 71.3205 22.3204C72.1537 21.78 72.8067 21.0369 73.2796 20.0912C73.7524 19.1229 73.9889 18.0308 73.9889 16.8149C73.9889 15.5764 73.7524 14.473 73.2796 13.5048C72.8067 12.5365 72.1537 11.7821 71.3205 11.2417C70.4874 10.7013 69.5416 10.4311 68.4833 10.4311C67.4024 10.4311 66.4342 10.7013 65.5785 11.2417C64.7454 11.7821 64.0923 12.5365 63.6195 13.5048C63.1466 14.473 62.9102 15.5651 62.9102 16.7811C62.9102 17.997 63.1466 19.0891 63.6195 20.0574C64.0923 21.0257 64.7454 21.78 65.5785 22.3204C66.4342 22.8609 67.4024 23.1311 68.4833 23.1311Z" fill="white"/>
<path d="M87.2815 8.33694C87.822 8.33694 88.3399 8.41575 88.8353 8.57337V10.6675C88.3624 10.4423 87.8445 10.3298 87.2815 10.3298C86.3133 10.3298 85.4126 10.6 84.5794 11.1404C83.7463 11.6808 83.0707 12.4689 82.5528 13.5048C82.0574 14.518 81.8097 15.7227 81.8097 17.1188V24.6848H79.5129V8.87736H81.8097V12.0524C82.4177 10.8814 83.1833 9.96947 84.1065 9.31646C85.0523 8.66344 86.1106 8.33694 87.2815 8.33694Z" fill="white"/>
<path d="M97.5193 25.2252C96.0106 25.2252 94.6595 24.8649 93.4661 24.1444C92.2727 23.4238 91.3382 22.4218 90.6626 21.1383C89.9871 19.8322 89.6493 18.3686 89.6493 16.7473C89.6493 15.126 89.9758 13.6849 90.6289 12.4239C91.3044 11.1404 92.2276 10.1384 93.3985 9.41779C94.592 8.69722 95.943 8.33694 97.4517 8.33694C98.9604 8.33694 100.311 8.69722 101.505 9.41779C102.698 10.1384 103.633 11.1404 104.308 12.4239C104.984 13.7074 105.322 15.1598 105.322 16.7811C105.322 18.4024 104.984 19.8548 104.308 21.1383C103.655 22.4218 102.732 23.4238 101.539 24.1444C100.368 24.8649 99.028 25.2252 97.5193 25.2252ZM97.4517 23.1311C98.5326 23.1311 99.4896 22.8609 100.323 22.3204C101.178 21.78 101.843 21.0257 102.316 20.0574C102.788 19.0891 103.025 17.997 103.025 16.7811C103.025 15.5651 102.788 14.473 102.316 13.5048C101.843 12.5365 101.178 11.7821 100.323 11.2417C99.4896 10.7013 98.5326 10.4311 97.4517 10.4311C96.3934 10.4311 95.4477 10.7013 94.6145 11.2417C93.7813 11.7821 93.1283 12.5365 92.6555 13.5048C92.1826 14.4505 91.9461 15.5313 91.9461 16.7473C91.9461 17.9858 92.1826 19.0891 92.6555 20.0574C93.1283 21.0257 93.7813 21.78 94.6145 22.3204C95.4477 22.8609 96.3934 23.1311 97.4517 23.1311Z" fill="white"/>
<path d="M109.417 24.6848V10.9715H106.715V8.87736H109.417V3.64199H111.714V8.87736H115.362V10.9715H111.714V24.6848H109.417Z" fill="white"/>
<path d="M124.765 25.2252C123.256 25.2252 121.905 24.8649 120.712 24.1444C119.518 23.4238 118.584 22.4218 117.908 21.1383C117.233 19.8322 116.895 18.3686 116.895 16.7473C116.895 15.126 117.221 13.6849 117.874 12.4239C118.55 11.1404 119.473 10.1384 120.644 9.41779C121.838 8.69722 123.189 8.33694 124.697 8.33694C126.206 8.33694 127.557 8.69722 128.75 9.41779C129.944 10.1384 130.878 11.1404 131.554 12.4239C132.229 13.7074 132.567 15.1598 132.567 16.7811C132.567 18.4024 132.229 19.8548 131.554 21.1383C130.901 22.4218 129.978 23.4238 128.784 24.1444C127.613 24.8649 126.274 25.2252 124.765 25.2252ZM124.697 23.1311C125.778 23.1311 126.735 22.8609 127.568 22.3204C128.424 21.78 129.088 21.0257 129.561 20.0574C130.034 19.0891 130.27 17.997 130.27 16.7811C130.27 15.5651 130.034 14.473 129.561 13.5048C129.088 12.5365 128.424 11.7821 127.568 11.2417C126.735 10.7013 125.778 10.4311 124.697 10.4311C123.639 10.4311 122.693 10.7013 121.86 11.2417C121.027 11.7821 120.374 12.5365 119.901 13.5048C119.428 14.4505 119.192 15.5313 119.192 16.7473C119.192 17.9858 119.428 19.0891 119.901 20.0574C120.374 21.0257 121.027 21.78 121.86 22.3204C122.693 22.8609 123.639 23.1311 124.697 23.1311Z" fill="white"/>
<path d="M3.56088 4.11334C2.16716 2.50294 3.31112 0 5.44088 0H18.5633C20.9841 0 23.2839 1.05846 24.8585 2.89729L33.9803 13.5503L21.6131 21.5674C20.531 22.2689 19.0974 22.0652 18.2535 21.0901L3.56088 4.11334Z" fill="#4739FF"/>
<path d="M3.56015 22.9872C2.16642 24.5976 3.31039 27.1006 5.44014 27.1006H18.5626C20.9834 27.1006 23.2832 26.0421 24.8577 24.2033L33.9796 13.5503L28.8053 10.196C23.5997 6.82146 16.7029 7.80127 12.6431 12.4922L3.56015 22.9872Z" fill="#7B46FF"/>
<path d="M3.55991 4.12384C2.16618 2.51344 3.31014 0.010498 5.4399 0.010498H18.5623C20.9832 0.010498 23.283 1.06896 24.8575 2.90779L33.9793 13.5608L26.3311 18.5188C22.5437 20.974 17.526 20.2611 14.5723 16.8482L3.55991 4.12384Z" fill="#4739FF"/>
<path d="M3.55992 22.9968C2.16619 24.6072 3.31015 27.1101 5.4399 27.1101H18.5623C20.9832 27.1101 23.283 26.0516 24.8575 24.2128L33.9793 13.5598L26.3311 8.60184C22.5437 6.14665 17.526 6.85952 14.5723 10.2724L3.55992 22.9968Z" fill="#7B46FF"/>
<path fill-rule="evenodd" clip-rule="evenodd" d="M33.9839 13.5717L26.3359 18.5296C22.5486 20.9848 17.5308 20.2719 14.5771 16.859L11.7319 13.5715L14.5771 10.284C17.5308 6.87116 22.5486 6.15829 26.3359 8.61348L33.9839 13.5713L33.9841 13.5715L33.9839 13.5717Z" fill="#22F4FF"/>
</svg>
