<svg width="132" height="21" viewBox="0 0 132 21" fill="none" xmlns="http://www.w3.org/2000/svg">
<g clip-path="url(#clip0)">
<path d="M19.8764 10.2994C19.8764 15.7718 15.4704 20.2081 10.0352 20.2081C4.59999 20.2081 0.194336 15.7731 0.194336 10.2994C0.194336 4.8258 4.60032 0.39108 10.0352 0.39108C15.4701 0.39108 19.8764 4.82714 19.8764 10.2994ZM30.6723 10.2994C30.6723 15.451 28.4692 19.6267 25.7517 19.6267C23.0343 19.6267 20.8311 15.4496 20.8311 10.2994C20.8311 5.14928 23.0343 0.972196 25.7517 0.972196C28.4692 0.972196 30.6723 5.14928 30.6723 10.2994ZM35.088 10.2994C35.088 14.915 34.3131 18.6563 33.3573 18.6563C32.4016 18.6563 31.6267 14.9136 31.6267 10.2994C31.6267 5.68528 32.4016 1.94261 33.3577 1.94261C34.3137 1.94261 35.088 5.68428 35.088 10.2994ZM62.248 1.25022L62.2754 1.24421V1.03201H56.6788L51.4822 13.2458L46.2856 1.03201H40.2545V1.24421L40.2816 1.25022C41.3031 1.4808 41.8218 1.82465 41.8218 3.06475V17.5826C41.8218 18.8227 41.3011 19.1665 40.2796 19.3971L40.2525 19.4031V19.616H44.3444V19.4038L44.3173 19.3978C43.2958 19.1672 42.7771 18.8234 42.7771 17.5833V3.90684L49.4528 19.616H49.8314L56.7015 3.46875V17.9418C56.614 18.9213 56.1 19.2237 55.1751 19.4325L55.1477 19.4389V19.6494H62.2754V19.4389L62.248 19.4325C61.322 19.2237 60.7957 18.9213 60.7082 17.9418L60.7035 3.06475H60.7082C60.7082 1.82465 61.2268 1.4808 62.248 1.25022ZM65.5038 10.8675C65.6204 8.25903 66.5571 6.37633 68.129 6.34392C68.6139 6.35194 69.0206 6.511 69.3367 6.8171C70.0084 7.46906 70.3242 8.83145 70.2754 10.8675H65.5038ZM65.4333 11.6027H73.7875V11.5676C73.7637 9.57297 73.186 8.02143 72.0718 6.95611C71.1088 6.03548 69.6829 5.52889 68.1852 5.52889H68.1517C67.3745 5.52889 66.4211 5.71736 65.7427 6.05888C64.9705 6.41643 64.2894 6.9511 63.7227 7.65285C62.8104 8.78333 62.2577 10.3111 62.1234 12.0281C62.119 12.0795 62.1154 12.131 62.1117 12.1825C62.108 12.2339 62.1057 12.2801 62.1033 12.3292C62.0914 12.5706 62.0874 12.8123 62.0913 13.054C62.1819 16.9427 64.2824 20.0504 68.0134 20.0504C71.2882 20.0504 73.1953 17.6565 73.6708 14.4431L73.4306 14.3586C72.5951 16.0855 71.0947 17.1321 69.3871 17.0045C67.056 16.8301 65.2702 14.4665 65.4323 11.6034L65.4333 11.6027ZM83.233 16.8725C82.959 17.5225 82.3872 17.88 81.621 17.88C80.8547 17.88 80.1543 17.354 79.6567 16.3983C79.1221 15.3724 78.8407 13.9221 78.8407 12.2042C78.8407 8.62862 79.9528 6.31585 81.6741 6.31585C82.3949 6.31585 82.9623 6.67341 83.233 7.2973V16.8725ZM88.7748 19.4215C87.7533 19.1799 87.2346 18.82 87.2346 17.5168V0.17688L81.0282 2.00544V2.22933L81.0663 2.22632C81.9224 2.15715 82.5032 2.27544 82.8403 2.58689C83.1043 2.83083 83.233 3.2051 83.233 3.73174V6.109C82.6211 5.71836 81.8933 5.52822 81.0101 5.52822C79.219 5.52822 77.5819 6.28243 76.4013 7.65218C75.1706 9.07974 74.5199 11.0306 74.5199 13.2932C74.5196 17.3343 76.5089 20.0504 79.4696 20.0504C81.2016 20.0504 82.5951 19.1014 83.233 17.5007V19.6494H88.8019V19.4269L88.7748 19.4215ZM94.0977 2.53509C94.0977 1.27328 93.1464 0.321574 91.8842 0.321574C90.6281 0.321574 89.6453 1.294 89.6453 2.53509C89.6453 3.77619 90.6291 4.74861 91.8842 4.74861C93.1464 4.74861 94.0977 3.7969 94.0977 2.53509ZM95.5627 19.4215C94.5412 19.1799 94.0226 18.82 94.0226 17.5168H94.0182V5.56932L88.449 7.16831V7.38552L88.4824 7.38852C89.6874 7.49579 90.0172 7.91082 90.0172 9.319V19.6494H95.5911V19.4269L95.5627 19.4215ZM109.833 19.4215C108.812 19.1799 108.293 18.82 108.293 17.5168V5.56932L102.991 7.11551V7.33339L103.022 7.33673C104.007 7.44032 104.292 7.87908 104.292 9.29361V16.8458C103.963 17.4957 103.347 17.8817 102.601 17.9077C101.39 17.9077 100.723 17.09 100.723 15.6053V5.56966L95.154 7.16864V7.38552L95.1875 7.38852C96.3925 7.49546 96.7226 7.91049 96.7226 9.319V15.7106C96.7198 16.1568 96.7586 16.6023 96.8386 17.0413L96.9388 17.4773C97.4103 19.1669 98.6457 20.0504 100.581 20.0504C102.221 20.0504 103.658 19.0356 104.29 17.4476V19.6531H109.86V19.4305L109.833 19.4215ZM131.468 19.6494V19.4265L131.441 19.4202C130.333 19.1645 129.901 18.6827 129.901 17.7016V9.57464C129.901 7.04066 128.478 5.52822 126.094 5.52822C124.356 5.52822 122.891 6.53239 122.327 8.09662C121.879 6.43916 120.589 5.52822 118.682 5.52822C117.008 5.52822 115.695 6.41209 115.132 7.90514V5.57032L109.563 7.10381V7.32236L109.596 7.32537C110.787 7.43096 111.131 7.85803 111.131 9.23011V19.6494H116.327V19.4269L116.3 19.4202C115.416 19.2123 115.13 18.8334 115.13 17.861V8.54574C115.364 7.99938 115.836 7.3521 116.768 7.3521C117.925 7.3521 118.512 8.1541 118.512 9.73404V19.6494H123.71V19.4269L123.682 19.4202C122.798 19.2123 122.513 18.8334 122.513 17.861V9.57364C122.515 9.26377 122.49 8.95428 122.439 8.64866C122.687 8.05485 123.186 7.3521 124.156 7.3521C125.33 7.3521 125.9 8.13104 125.9 9.73404V19.6494H131.468Z" fill="white"/>
</g>
<defs>
<clipPath id="clip0">
<rect width="131.662" height="20.3841" fill="white"/>
</clipPath>
</defs>
</svg>
