<svg width="12" height="10" viewBox="0 0 12 10" fill="none" xmlns="http://www.w3.org/2000/svg">
<path fill-rule="evenodd" clip-rule="evenodd" d="M5.89892 2.81987L5.92334 3.22255L5.51633 3.17324C4.03482 2.98423 2.74053 2.34322 1.6416 1.26666L1.10435 0.732487L0.965963 1.12695C0.672916 2.00628 0.860141 2.93492 1.47066 3.55949C1.79626 3.90465 1.723 3.95396 1.16133 3.7485C0.965963 3.68276 0.795019 3.63345 0.778739 3.65811C0.721758 3.71563 0.917123 4.46347 1.07179 4.75932C1.28343 5.17023 1.71486 5.57291 2.18699 5.81123L2.58586 6.00025L2.11373 6.00846C1.65788 6.00846 1.6416 6.01668 1.69044 6.18926C1.85324 6.72343 2.49632 7.29048 3.21266 7.53702L3.71735 7.7096L3.27778 7.97258C2.62656 8.35061 1.86138 8.56427 1.09621 8.58071C0.729898 8.58893 0.428711 8.6218 0.428711 8.64645C0.428711 8.72863 1.42181 9.18884 1.99977 9.36964C3.73363 9.90381 5.7931 9.67371 7.33973 8.76151C8.43866 8.11228 9.53758 6.82205 10.0504 5.57291C10.3272 4.90725 10.604 3.69098 10.604 3.1075C10.604 2.72947 10.6284 2.68016 11.0842 2.22817C11.3528 1.96519 11.6052 1.67756 11.654 1.59538C11.7354 1.43924 11.7273 1.43924 11.3121 1.57894C10.6202 1.82549 10.5225 1.79261 10.8644 1.4228C11.1168 1.15982 11.418 0.683178 11.418 0.543471C11.418 0.518818 11.2959 0.559908 11.1575 0.633869C11.011 0.716051 10.6854 0.839321 10.4411 0.913282L10.0016 1.05299L9.60271 0.781796C9.38292 0.633869 9.0736 0.469509 8.91079 0.420201C8.49564 0.305148 7.86071 0.321585 7.48626 0.453074C6.46873 0.822886 5.82566 1.77618 5.89892 2.81987Z" fill="#EBEBFC"/>
</svg>
