<svg width="366" height="186" viewBox="0 0 366 186" fill="none" xmlns="http://www.w3.org/2000/svg">
<g filter="url(#filter0_i)">
<path d="M278.387 15.9811L269.407 6.06378C265.911 2.20265 260.945 0 255.736 0H18.4426C8.25702 0 0 8.25702 0 18.4426V167.557C0 177.743 8.25702 186 18.4426 186H347.557C357.743 186 366 177.743 366 167.557V50.9307C366 40.7451 357.743 32.4881 347.557 32.4881H301.572C296.382 32.4881 291.433 30.3017 287.938 26.4654L278.387 15.9811Z" fill="white" fill-opacity="0.03"/>
</g>
<path d="M278.046 16.2916L278.045 16.2906L269.065 6.37325C265.657 2.60865 260.815 0.461064 255.736 0.461064H18.4426C8.51166 0.461064 0.46106 8.51166 0.46106 18.4426V167.557C0.46106 177.488 8.51166 185.539 18.4426 185.539H347.557C357.488 185.539 365.539 177.488 365.539 167.557V50.9307C365.539 40.9998 357.488 32.9491 347.557 32.9491H301.572C296.252 32.9491 291.179 30.7081 287.597 26.7759L278.046 16.2916Z" stroke="url(#paint0_linear)" stroke-width="0.922129"/>
<path d="M278.046 16.2916L278.045 16.2906L269.065 6.37325C265.657 2.60865 260.815 0.461064 255.736 0.461064H18.4426C8.51166 0.461064 0.46106 8.51166 0.46106 18.4426V167.557C0.46106 177.488 8.51166 185.539 18.4426 185.539H347.557C357.488 185.539 365.539 177.488 365.539 167.557V50.9307C365.539 40.9998 357.488 32.9491 347.557 32.9491H301.572C296.252 32.9491 291.179 30.7081 287.597 26.7759L278.046 16.2916Z" stroke="url(#paint1_linear)" stroke-width="0.922129"/>
<defs>
<filter id="filter0_i" x="0" y="0" width="366" height="186.736" filterUnits="userSpaceOnUse" color-interpolation-filters="sRGB">
<feFlood flood-opacity="0" result="BackgroundImageFix"/>
<feBlend mode="normal" in="SourceGraphic" in2="BackgroundImageFix" result="shape"/>
<feColorMatrix in="SourceAlpha" type="matrix" values="0 0 0 0 0 0 0 0 0 0 0 0 0 0 0 0 0 0 127 0" result="hardAlpha"/>
<feOffset dy="0.736386"/>
<feGaussianBlur stdDeviation="4.61064"/>
<feComposite in2="hardAlpha" operator="arithmetic" k2="-1" k3="1"/>
<feColorMatrix type="matrix" values="0 0 0 0 0.888917 0 0 0 0 0.870833 0 0 0 0 1 0 0 0 0.2 0"/>
<feBlend mode="normal" in2="shape" result="effect1_innerShadow"/>
</filter>
<linearGradient id="paint0_linear" x1="12.4486" y1="48.7415" x2="165.566" y2="17.1145" gradientUnits="userSpaceOnUse">
<stop stop-color="white" stop-opacity="0"/>
<stop offset="0.515625" stop-color="white"/>
<stop offset="1" stop-color="white" stop-opacity="0"/>
</linearGradient>
<linearGradient id="paint1_linear" x1="543.134" y1="44.0365" x2="508.819" y2="116.695" gradientUnits="userSpaceOnUse">
<stop stop-color="white"/>
<stop offset="1" stop-color="white" stop-opacity="0"/>
</linearGradient>
</defs>
</svg>
